<svg xmlns="http://www.w3.org/2000/svg" viewBox="0 0 24 24" fill="none" stroke="#000000" stroke-linecap="round" stroke-linejoin="round" id="Settings--Streamline-Lucide" height="24" width="24">
  <desc>
    Settings Streamline Icon: https://streamlinehq.com
  </desc>
  <path d="M12.22 2h-0.44a2 2 0 0 0 -2 2v0.18a2 2 0 0 1 -1 1.73l-0.43 0.25a2 2 0 0 1 -2 0l-0.15 -0.08a2 2 0 0 0 -2.73 0.73l-0.22 0.38a2 2 0 0 0 0.73 2.73l0.15 0.1a2 2 0 0 1 1 1.72v0.51a2 2 0 0 1 -1 1.74l-0.15 0.09a2 2 0 0 0 -0.73 2.73l0.22 0.38a2 2 0 0 0 2.73 0.73l0.15 -0.08a2 2 0 0 1 2 0l0.43 0.25a2 2 0 0 1 1 1.73V20a2 2 0 0 0 2 2h0.44a2 2 0 0 0 2 -2v-0.18a2 2 0 0 1 1 -1.73l0.43 -0.25a2 2 0 0 1 2 0l0.15 0.08a2 2 0 0 0 2.73 -0.73l0.22 -0.39a2 2 0 0 0 -0.73 -2.73l-0.15 -0.08a2 2 0 0 1 -1 -1.74v-0.5a2 2 0 0 1 1 -1.74l0.15 -0.09a2 2 0 0 0 0.73 -2.73l-0.22 -0.38a2 2 0 0 0 -2.73 -0.73l-0.15 0.08a2 2 0 0 1 -2 0l-0.43 -0.25a2 2 0 0 1 -1 -1.73V4a2 2 0 0 0 -2 -2z" stroke-width="2"></path>
  <path d="M9 12a3 3 0 1 0 6 0 3 3 0 1 0 -6 0" stroke-width="2"></path>
</svg>